PathFileType	4	(X/Y/Z)	Patient4_TMGait_0pt6_02_left_46.trc.trc
DataRate	CameraRate	NumFrames	NumMarkers	Units	OrigDataRate	OrigDataStartFrame	OrigNumFrames
84.337349397591	84.337349397591	4	33	mm	84.337349397591	106	       141
Frame#	Time	Sacral			L.Shoulder			Chest			R.Shoulder			Neck			R.ASIS			L.ASIS			R.Thigh.Superior			R.Thigh.Lateral			R.Thigh.Inferior			R.Patella			L.Thigh.Superior			L.Thigh.Lateral			L.Thigh.Inferior			L.Patella			L.Shank.Superior			L.Shank.Lateral			L.Shank.Inferior			R.Shank.Superior			R.Shank.Lateral			R.Shank.Inferior			R.Heel			R.Midfoot.Superior			R.Midfoot.Lateral			R.Toe			L.Heel			L.Midfoot.Lateral			L.Midfoot.Superior			L.Toe			L.Elbow			L.Wrist			R.Elbow			R.Wrist			
		X1	Y1	Z1	X2	Y2	Z2	X3	Y3	Z3	X4	Y4	Z4	X5	Y5	Z5	X6	Y6	Z6	X7	Y7	Z7	X8	Y8	Z8	X9	Y9	Z9	X10	Y10	Z10	X11	Y11	Z11	X12	Y12	Z12	X13	Y13	Z13	X14	Y14	Z14	X15	Y15	Z15	X16	Y16	Z16	X17	Y17	Z17	X18	Y18	Z18	X19	Y19	Z19	X20	Y20	Z20	X21	Y21	Z21	X22	Y22	Z22	X23	Y23	Z23	X24	Y24	Z24	X25	Y25	Z25	X26	Y26	Z26	X27	Y27	Z27	X28	Y28	Z28	X29	Y29	Z29	X30	Y30	Z30	X31	Y31	Z31	X32	Y32	Z32	X33	Y33	Z33	

106	57.385000000000	859.745305599086	1018.096250874284	544.129283469250	1041.860898543415	1433.530428544555	344.356481014006	1159.393717396921	1358.451912945577	491.916690616358	1102.582512322622	1437.940152724431	672.963982940368	1061.938049453724	1495.362196576354	494.474005078242	1091.761957493849	941.690295854277	639.594072699430	1056.478515862438	966.605291296468	367.745041123091	1117.658429012510	737.409705493608	608.629160794542	1032.076650923558	633.532289615687	670.209371103612	1102.110352146267	577.924923910326	586.238365168674	1096.359267570982	490.777731538781	590.694100963593	1150.032680844088	807.849421235177	399.955441431993	1126.917679009833	680.096692667495	315.140533244311	1238.149268512030	630.530652739605	376.917106354598	1265.690686936218	543.716006632873	365.307153184106	1211.315323094336	467.664936708615	356.846182983457	1079.714846770431	399.152425526121	310.803909058348	1097.166965445422	268.390339974526	360.924370102134	1066.338269977537	403.736483609062	597.133746352916	992.309333519445	301.428967883301	657.183866505980	1030.386450372437	206.369837884788	591.617290353757	892.102603247142	44.145151173472	556.991094228384	1062.985973998912	96.862784691477	596.292616224851	974.157979387252	37.403451917427	633.668234199601	1182.777038523054	41.909978332882	626.717000517449	927.090506403274	164.105280152468	403.496849939865	988.224226279135	134.962115312371	318.426862858468	1090.326105610711	163.166384475303	336.030295563820	1187.415611926558	71.485501772528	298.412861699207	1004.905759945550	1078.218505157853	231.775579802623	1122.225621346098	844.908119985250	243.097386461560	1147.447112349849	1092.593833180146	802.285156755915	1328.693626745579	912.146895506767	749.894350705958	
107	57.396857142857	859.558973737254	1018.676813797379	544.907617170338	1041.421838155534	1433.674243413622	344.699697902626	1159.841667112165	1358.364330073013	491.394101286374	1104.478306472859	1437.949462933832	672.887537450985	1062.596925396804	1495.391900566928	494.706908188160	1091.672114304576	941.525831148703	639.272172928605	1054.624935985414	966.176456583635	367.884575195312	1115.171188211629	736.638592073241	608.001628098316	1028.893764192247	633.511313463025	670.273327360515	1097.760789445707	577.166531927538	586.002810082325	1091.157724835925	490.317932556702	590.536340257558	1149.304052366938	809.740663406461	400.165004656915	1127.862396551577	681.778103387039	314.948946887864	1239.115337766927	633.298683903898	377.171242734969	1268.230561210800	547.732793173990	365.343357115511	1217.035407871098	470.627172508434	356.537740019352	1089.269135380801	395.618047203893	310.126306036944	1113.635712347793	265.571903937587	359.846287015375	1060.848736168089	403.426066382511	597.019462542770	986.569570018445	301.453655174745	657.282146822622	1024.009767735652	206.252542865438	591.561499839836	884.992320967266	44.259015059656	557.117104054857	1055.926218391410	96.844495268395	596.339737426094	967.022875977709	37.382588540959	633.703524797415	1175.635715910569	41.734273902043	626.736060773942	949.438174432944	152.020877092352	401.980055479533	1012.084887877235	126.600678344983	316.890260818261	1112.492925446573	160.192047326945	334.727970017144	1214.476821262497	74.090678783477	296.971394186590	996.609893461219	1078.553541256172	233.486356149702	1098.125477327390	837.807634451388	243.041306094861	1160.015967799848	1094.826024882977	802.087175167713	1350.309254809365	926.211016653490	743.987886356148	
108	57.408714285714	859.450198456121	1019.179888400849	545.438143322527	1041.142417745730	1433.775497522206	344.920314229713	1160.344828803864	1358.210374805246	490.809611980371	1106.304457119893	1437.896297683940	672.703139620158	1063.290907898098	1495.355329664793	494.833894863999	1091.579957885323	941.325562516828	638.909986147743	1053.221301807318	965.763306678799	367.856830093625	1112.762709040379	735.847014818086	607.436682654973	1025.721136214163	633.473156254947	670.316949675844	1093.486184818192	576.399874511339	585.815617740970	1086.031758111861	489.850511242531	590.423108736619	1148.425108642628	810.981801449997	400.326975368200	1128.324315154981	682.848725745945	314.754791424704	1239.379727520101	635.151397698605	377.535099993131	1269.883042517229	550.967280437729	365.604615705714	1221.945915622362	473.053122533978	356.428329376891	1098.635917097454	391.641781680764	309.206793527734	1129.769777401434	262.706773408614	358.759326694993	1055.400798890012	403.092119186476	596.914026803175	980.850574113529	301.477100721390	657.375015883418	1017.652912000456	206.138631798365	591.521266040437	877.888952642921	44.378374911464	557.261403838061	1048.873449061952	96.829874073254	596.386643361082	959.889918051086	37.359838056315	633.740830161770	1168.497396755581	41.573517663818	626.761663503623	971.927531895210	140.099518098151	399.934876781573	1036.197900620963	118.517572962973	315.094116376056	1134.491630383848	157.454056937479	333.516782684706	1241.210939157735	77.232729576213	296.091267672165	988.347413162662	1079.190741716236	234.805053583539	1074.164013994230	832.415183355730	243.398970322470	1172.128276454297	1097.334062541669	801.577030255531	1370.731014030677	941.158310774998	737.861222083676	
109	57.420571428571	859.430723323140	1019.596308753271	545.715432371547	1041.023980234341	1433.840994993196	345.015981506171	1160.896106164458	1357.993541942421	490.168069643659	1108.040243868494	1437.780326372983	672.411926378214	1064.018465963901	1495.256437778838	494.855086478321	1091.502420764434	941.099255724703	638.502183765484	1052.299020207185	965.388565051218	367.642544537265	1110.460001122431	735.040400406225	606.948512198730	1022.572423085641	633.416309534780	670.329069122664	1089.319945525319	575.625269417730	585.679711031678	1081.008152756047	489.370055401620	590.341776749292	1147.435042805769	811.572942040665	400.438371373994	1128.323392351732	683.296058478772	314.552433221274	1238.989287578611	636.075422483044	377.980821273842	1270.695468396559	553.396511250006	366.088519688483	1226.048226207241	474.924166271043	356.533876069054	1107.785880922142	387.322659138420	308.041694749556	1145.396832026258	259.880606914903	357.712494250455	1050.013140516161	402.733658012133	596.809317957738	975.161212774366	301.503792660133	657.453455891476	1011.320982114089	206.027275772616	591.491042907309	870.788807646817	44.505383045701	557.419390752062	1041.826673378370	96.819529983901	596.432705806205	952.759182713692	37.339265107461	633.780177498928	1161.363221037494	41.428527840540	626.795792214476	994.283619080919	128.559726993463	397.394678974006	1060.304683407447	110.881439174111	313.103490087650	1156.074664592677	155.049560316712	332.467156848084	1267.312232040784	80.949624348718	295.905519295213	980.180532739198	1080.143259353691	235.731425576350	1050.612530814047	828.661512781876	244.197112256632	1183.760644285023	1100.070128665616	800.746598052468	1389.873949078509	956.818253810861	731.594661538824	
